<svg width="241" height="75" viewBox="0 0 241 75" fill="none" xmlns="http://www.w3.org/2000/svg">
<path d="M70.6113 0.776367C71.8222 0.776367 72.7304 1.15467 73.3358 1.83563C73.9413 2.51658 74.1683 3.34885 74.1683 4.40811C74.1683 5.46737 73.8656 6.29964 73.2601 7.05625C72.6547 7.81287 71.7465 8.19117 70.5356 8.19117C69.4003 8.19117 68.4922 7.81287 67.9624 7.05625C67.4326 6.29964 67.1299 5.39171 67.1299 4.40811C67.1299 3.34885 67.4326 2.51658 67.9624 1.83563C68.5678 1.15467 69.476 0.776367 70.6113 0.776367ZM73.7142 13.9414V55.2525H67.7353V13.9414H73.7142Z" fill="white"/>
<path d="M100.733 0.170898V55.2523H96.6458L95.6619 52.6798C94.6023 53.6634 93.4671 54.42 92.1805 54.9497C90.8939 55.4793 89.5317 55.7819 88.1694 55.7819C87.0341 55.7819 85.9746 55.555 84.915 55.1767C83.8555 54.7983 82.9473 54.1174 82.1905 53.2851C81.4337 52.4528 80.8282 51.3936 80.2984 50.183C79.8444 48.9724 79.6173 47.4592 79.6173 45.7946V23.3989C79.6173 21.7344 79.8444 20.2968 80.2984 19.0106C80.7525 17.7243 81.358 16.6651 82.1905 15.8328C82.9473 15.0005 83.8555 14.3952 84.915 13.9413C85.9746 13.5629 87.0341 13.336 88.1694 13.336C89.3046 13.336 90.5155 13.5629 91.6507 13.9413C92.786 14.3196 93.8455 14.9248 94.8294 15.6815V1.68412L100.733 0.170898ZM85.5962 44.5084C85.5962 46.2486 85.8989 47.5349 86.5801 48.4428C87.2612 49.3507 88.3207 49.8047 89.7587 49.8047C91.5751 49.8047 93.2401 49.0481 94.678 47.4592V21.7344C93.1644 20.1455 91.5751 19.3889 89.7587 19.3889C88.2451 19.3889 87.1855 19.8428 86.5801 20.7508C85.8989 21.6587 85.5962 23.0206 85.5962 24.6852V44.5084Z" fill="white"/>
<path d="M120.183 36.7153C119.275 37.5476 118.14 38.3798 116.853 39.2878C115.566 40.1957 114.128 41.1793 112.463 42.2386V45.5677C112.463 47.0052 112.842 48.0645 113.674 48.8211C114.507 49.5777 115.491 49.956 116.777 49.956C118.064 49.956 119.123 49.5777 119.956 48.8211C120.788 48.0645 121.167 47.0052 121.167 45.5677V42.9195L126.616 41.482V45.719C126.616 47.3079 126.389 48.6698 125.859 49.8804C125.329 51.0909 124.648 52.1502 123.664 53.0581C122.756 53.9661 121.697 54.5714 120.486 55.0253C119.275 55.4793 117.988 55.7063 116.55 55.7063C115.112 55.7063 113.826 55.4793 112.69 55.0253C111.48 54.5714 110.42 53.8904 109.512 53.0581C108.604 52.1502 107.922 51.1666 107.393 49.8804C106.863 48.6698 106.636 47.2322 106.636 45.719V23.3989C106.636 21.8857 106.863 20.4481 107.393 19.2375C107.922 18.027 108.604 16.9677 109.512 16.0598C110.42 15.1518 111.48 14.5465 112.69 14.0926C113.901 13.6386 115.188 13.4116 116.626 13.4116C117.837 13.4116 119.048 13.5629 120.259 13.9412C121.47 14.3196 122.529 14.9248 123.513 15.7571C124.421 16.5894 125.254 17.7243 125.859 19.0862C126.465 20.4481 126.767 22.1883 126.767 24.2312C126.767 26.8037 126.237 29.0735 125.178 30.965C124.118 32.9322 122.453 34.8238 120.183 36.7153ZM112.463 36.4126C114.507 35.1264 116.02 33.9158 117.156 32.9322C118.518 31.646 119.577 30.3597 120.107 29.0735C120.713 27.7873 121.015 26.3497 121.015 24.6851C121.015 22.491 120.561 21.0534 119.729 20.2211C118.821 19.3889 117.837 18.9349 116.626 18.9349C115.339 18.9349 114.28 19.3889 113.599 20.2211C112.842 21.0534 112.539 22.1883 112.539 23.7016V36.4126H112.463Z" fill="white"/>
<path d="M135.244 0.776367C136.455 0.776367 137.363 1.15467 137.968 1.83563C138.574 2.51658 138.876 3.42451 138.876 4.40811C138.876 5.46737 138.574 6.29964 137.968 7.05625C137.363 7.81287 136.455 8.19117 135.244 8.19117C134.108 8.19117 133.2 7.81287 132.67 7.05625C132.141 6.29964 131.838 5.39171 131.838 4.40811C131.838 3.34885 132.141 2.51658 132.67 1.83563C133.2 1.15467 134.033 0.776367 135.244 0.776367ZM138.347 13.9414V55.2525H132.368V13.9414H138.347Z" fill="white"/>
<path d="M145.007 18.027C145.99 16.5894 147.353 15.4545 149.093 14.6222C150.834 13.7899 152.65 13.4116 154.618 13.4116C157.872 13.4116 160.37 14.4709 161.959 16.5894C163.549 18.7079 164.381 21.3561 164.381 24.6851V55.2523H160.597L159.537 52.9825C158.478 53.8147 157.343 54.4957 156.056 55.0253C154.77 55.5549 153.407 55.7819 151.969 55.7819C150.834 55.7819 149.775 55.555 148.715 55.1766C147.655 54.7983 146.747 54.193 145.915 53.3608C145.082 52.5285 144.477 51.4692 144.023 50.1073C143.569 48.7454 143.342 47.0809 143.342 45.1137C143.342 43.6005 143.493 42.1629 143.796 40.9523C144.098 39.6661 144.628 38.5312 145.309 37.3962C145.99 36.2613 146.899 35.2021 147.958 34.0671C149.018 33.0079 150.304 31.873 151.818 30.7381C152.802 29.9814 153.861 29.2248 155.072 28.4682C156.207 27.7116 157.494 26.8793 158.781 26.0471V24.7608C158.781 23.0206 158.402 21.6587 157.57 20.5994C156.737 19.5402 155.526 19.0106 153.861 19.0106C152.726 19.0106 151.667 19.3132 150.683 19.8428C149.775 20.3725 148.942 21.2047 148.412 22.1883L145.007 18.027ZM153.71 50.1073C154.618 50.1073 155.526 49.8804 156.359 49.502C157.191 49.1237 157.948 48.5184 158.705 47.7618V31.873C157.872 32.4026 157.191 32.8566 156.51 33.2349C155.905 33.6888 155.299 34.0671 154.694 34.5211C152.575 36.1857 151.137 37.7746 150.38 39.2878C149.623 40.801 149.245 42.4655 149.245 44.1301C149.245 46.2486 149.623 47.7618 150.456 48.6698C151.288 49.5777 152.423 50.1073 153.71 50.1073Z" fill="white"/>
<path d="M177.323 12.4282C179.82 12.4282 181.864 13.1848 183.377 14.6224C184.891 16.06 185.648 18.4811 185.648 21.7346C185.648 23.2478 185.496 24.534 185.118 25.5933C184.815 26.6525 184.286 27.7118 183.68 28.8467C183.226 29.6033 182.696 30.5113 182.015 31.4192C181.334 32.4028 180.728 33.3107 179.972 34.37C179.291 35.3536 178.609 36.3372 177.928 37.3208C177.247 38.3044 176.642 39.2123 176.112 40.0446C175.733 40.7255 175.431 41.2552 175.128 41.7848C174.901 42.3144 174.674 42.8441 174.523 43.298C174.371 43.8277 174.296 44.3573 174.22 44.8869C174.144 45.4922 174.144 46.1732 174.144 46.9298V50.4102H185.572V55.2525H169.225V46.9298C169.225 45.5679 169.376 44.206 169.679 42.8441C169.982 41.4822 170.511 40.1202 171.344 38.607C171.798 37.8504 172.403 36.9425 173.085 35.9589C173.766 34.9753 174.447 33.9917 175.204 33.0081C175.885 32.0245 176.642 31.0409 177.323 30.0573C178.004 29.0737 178.609 28.1658 179.063 27.4092C179.669 26.3499 180.123 25.3663 180.35 24.3827C180.577 23.4748 180.728 22.4912 180.728 21.5076C180.728 19.9187 180.426 18.7838 179.82 18.1028C179.215 17.4219 178.307 17.1192 177.171 17.1192C175.961 17.1192 175.052 17.4219 174.447 18.0272C173.766 18.6324 173.463 19.5404 173.463 20.751V22.0372H168.922V20.6753C168.922 18.1028 169.679 16.06 171.117 14.5467C172.555 13.1848 174.674 12.4282 177.323 12.4282Z" fill="#FA9401"/>
<path d="M206.385 47.535C206.385 48.8969 206.158 50.0319 205.704 51.0911C205.249 52.1504 204.644 52.9826 203.887 53.7393C203.13 54.4959 202.146 55.0255 201.087 55.4038C200.027 55.7821 198.892 55.9334 197.757 55.9334C196.546 55.9334 195.411 55.7821 194.351 55.4038C193.292 55.0255 192.383 54.4959 191.627 53.7393C190.87 52.9826 190.264 52.1504 189.81 51.0911C189.356 50.0319 189.129 48.8969 189.129 47.535V20.8266C189.129 19.4647 189.356 18.3298 189.81 17.2705C190.264 16.2113 190.87 15.379 191.627 14.6224C192.383 13.9414 193.292 13.3361 194.351 12.9578C195.411 12.5795 196.546 12.3525 197.757 12.3525C198.968 12.3525 200.027 12.5795 201.087 12.9578C202.146 13.3361 203.055 13.9414 203.887 14.6224C204.644 15.3033 205.325 16.2113 205.704 17.2705C206.158 18.3298 206.385 19.4647 206.385 20.8266V47.535ZM193.973 47.4594C193.973 48.67 194.351 49.5779 195.032 50.2588C195.713 50.8641 196.622 51.1668 197.757 51.1668C198.892 51.1668 199.8 50.8641 200.481 50.2588C201.163 49.6536 201.541 48.7456 201.541 47.4594V20.9023C201.541 19.6917 201.163 18.7837 200.481 18.1028C199.8 17.4975 198.892 17.1949 197.757 17.1949C196.622 17.1949 195.713 17.4975 195.032 18.1028C194.351 18.7081 193.973 19.616 193.973 20.9023V47.4594Z" fill="#FA9401"/>
<path d="M228.105 47.535C228.105 48.8969 227.878 50.0319 227.424 51.0911C226.97 52.1504 226.365 52.9826 225.608 53.7393C224.851 54.4959 223.867 55.0255 222.808 55.4038C221.748 55.7821 220.613 55.9334 219.478 55.9334C218.267 55.9334 217.131 55.7821 216.072 55.4038C215.012 55.0255 214.104 54.4959 213.347 53.7393C212.591 52.9826 211.985 52.1504 211.531 51.0911C211.077 50.0319 210.85 48.8969 210.85 47.535V20.8266C210.85 19.4647 211.077 18.3298 211.531 17.2705C211.985 16.2113 212.591 15.379 213.347 14.6224C214.104 13.9414 215.012 13.3361 216.072 12.9578C217.131 12.5795 218.267 12.3525 219.478 12.3525C220.689 12.3525 221.748 12.5795 222.808 12.9578C223.867 13.3361 224.775 13.9414 225.608 14.6224C226.365 15.3033 227.046 16.2113 227.424 17.2705C227.878 18.3298 228.105 19.4647 228.105 20.8266V47.535ZM215.694 47.4594C215.694 48.67 216.072 49.5779 216.753 50.2588C217.434 50.8641 218.342 51.1668 219.478 51.1668C220.613 51.1668 221.521 50.8641 222.202 50.2588C222.883 49.6536 223.262 48.7456 223.262 47.4594V20.9023C223.262 19.6917 222.883 18.7837 222.202 18.1028C221.521 17.4975 220.613 17.1949 219.478 17.1949C218.342 17.1949 217.434 17.4975 216.753 18.1028C216.072 18.7081 215.694 19.616 215.694 20.9023V47.4594Z" fill="#FA9401"/>
<path d="M233.176 16.665C234.084 16.665 234.69 16.3623 235.068 15.7571C235.447 15.1518 235.598 14.2438 235.598 13.1846H240.517V55.2522H235.598V20.8264H231.057V16.665H233.176Z" fill="#FA9401"/>
<path d="M74.8494 70.8388C74.3954 71.0657 73.4115 71.3684 72.0492 71.3684C69.249 71.3684 67.4326 69.4769 67.4326 66.9044C67.4326 64.1806 69.4003 62.2134 72.3519 62.2134C73.4115 62.2134 74.3197 62.516 74.7738 62.743L74.3954 63.9536C74.0926 63.8023 73.4115 63.5753 72.4276 63.5753C70.3085 63.5753 69.0976 65.0129 69.0976 66.8287C69.0976 68.8716 70.5356 70.0822 72.3519 70.0822C73.3358 70.0822 74.0169 69.7795 74.5467 69.6282L74.8494 70.8388Z" fill="white"/>
<path d="M83.2501 69.0986C83.2501 69.8552 83.2501 70.6118 83.4015 71.2171H81.9635L81.8121 70.0822H81.7365C81.2824 70.7631 80.2228 71.4441 78.8605 71.4441C76.9685 71.4441 76.0603 70.0822 76.0603 68.9473C76.0603 66.8288 77.8767 65.6182 81.6608 65.6938V65.5425C81.6608 65.0129 81.5094 63.4997 79.5417 63.4997C78.6335 63.4997 77.7253 63.8023 77.0442 64.2563L76.6658 63.197C77.4983 62.6674 78.5578 62.3647 79.7687 62.3647C82.6446 62.3647 83.2501 64.4076 83.2501 66.0721V69.0986ZM81.7365 66.7531C79.7687 66.6774 77.7253 67.0557 77.7253 68.6446C77.7253 69.6282 78.4064 70.1578 79.3146 70.1578C80.6012 70.1578 81.358 69.3256 81.6608 68.6446C81.7365 68.4933 81.7365 68.2663 81.7365 68.115V66.7531V66.7531Z" fill="white"/>
<path d="M87.8668 60.3975V62.516H90.2886V63.7266H87.8668V68.2662C87.8668 69.3255 88.1695 70.0821 89.1534 70.0821C89.6074 70.0821 89.9102 70.0064 90.1372 69.9308L90.2129 71.1414C89.9102 71.2927 89.3804 71.3684 88.6993 71.3684C87.9424 71.3684 87.337 71.0657 86.9586 70.6117C86.5045 70.0821 86.3531 69.2498 86.3531 68.3419V63.6509H84.9908V62.4403H86.3531V60.7758L87.8668 60.3975Z" fill="white"/>
<path d="M98.6893 69.0985C98.6893 69.8551 98.6893 70.6117 98.8407 71.217H97.4027L97.2513 70.0821H97.1757C96.7216 70.763 95.662 71.444 94.2997 71.444C92.4077 71.444 91.4995 70.0821 91.4995 68.9472C91.4995 66.8286 93.3159 65.6181 97.1 65.6937V65.5424C97.1 65.0128 96.9486 63.4996 94.9809 63.4996C94.0727 63.4996 93.1645 63.8022 92.4834 64.2562L92.105 63.1969C92.9375 62.6673 93.997 62.3646 95.2079 62.3646C98.0838 62.3646 98.6893 64.4075 98.6893 66.072V69.0985ZM97.1 66.753C95.1322 66.6773 93.0888 67.0556 93.0888 68.6445C93.0888 69.6281 93.77 70.1577 94.6782 70.1577C95.9647 70.1577 96.7216 69.3255 97.0243 68.6445C97.1 68.4932 97.1 68.2662 97.1 68.1149V66.753ZM97.7811 58.6572L95.5107 61.3054H94.3754L95.9647 58.6572H97.7811Z" fill="white"/>
<path d="M101.338 58.3545H102.927V71.2169H101.338V58.3545Z" fill="white"/>
<path d="M109.512 71.4441C106.939 71.4441 104.971 69.6282 104.971 66.9801C104.971 64.1049 107.014 62.2891 109.587 62.2891C112.312 62.2891 114.128 64.1806 114.128 66.7531C114.204 69.9309 111.782 71.4441 109.512 71.4441ZM109.587 70.2335C111.177 70.2335 112.539 69.0229 112.539 66.8287C112.539 65.3155 111.631 63.4996 109.587 63.4996C107.544 63.4996 106.636 65.1642 106.636 66.9044C106.636 68.9473 107.998 70.2335 109.587 70.2335Z" fill="white"/>
<path d="M124.194 69.8552C124.194 71.7467 123.74 73.1086 122.832 73.9409C121.924 74.7731 120.561 75.0001 119.502 75.0001C118.367 75.0001 117.156 74.6975 116.399 74.1679L116.777 72.8816C117.383 73.2599 118.367 73.6382 119.578 73.6382C121.318 73.6382 122.605 72.7303 122.605 70.4605V69.4769C122.075 70.3091 121.091 71.0658 119.578 71.0658C117.231 71.0658 115.642 69.1742 115.642 66.8287C115.642 63.9536 117.685 62.2134 119.805 62.2134C121.47 62.2134 122.378 63.0457 122.832 63.8779L122.908 62.4404H124.345C124.27 63.0457 124.27 63.7266 124.27 64.7102V69.8552H124.194ZM122.605 66.0721C122.605 65.7695 122.605 65.5425 122.529 65.3155C122.226 64.2562 121.318 63.4996 120.032 63.4996C118.442 63.4996 117.156 64.7859 117.156 66.8287C117.156 68.3419 118.064 69.9308 119.956 69.9308C121.091 69.9308 122.075 69.1742 122.378 68.1906C122.453 67.9636 122.529 67.5853 122.529 67.3583V66.0721H122.605Z" fill="white"/>
<path d="M130.778 71.4441C128.205 71.4441 126.238 69.6282 126.238 66.9801C126.238 64.1049 128.281 62.2891 130.854 62.2891C133.579 62.2891 135.395 64.1806 135.395 66.7531C135.471 69.9309 133.049 71.4441 130.778 71.4441ZM130.854 70.2335C132.443 70.2335 133.806 69.0229 133.806 66.8287C133.806 65.3155 132.898 63.4996 130.854 63.4996C128.811 63.4996 127.903 65.1642 127.903 66.9044C127.903 68.9473 129.265 70.2335 130.854 70.2335Z" fill="white"/>
<path d="M137.363 69.5526C137.893 69.8552 138.801 70.2335 139.633 70.2335C140.844 70.2335 141.374 69.6282 141.374 68.9473C141.374 68.1907 140.844 67.8124 139.633 67.434C137.968 66.9044 137.211 65.9965 137.211 64.9372C137.211 63.4997 138.347 62.3647 140.314 62.3647C141.223 62.3647 142.055 62.5917 142.585 62.97L142.206 64.1806C141.904 63.9536 141.147 63.651 140.239 63.651C139.255 63.651 138.725 64.1806 138.725 64.8616C138.725 65.6182 139.331 65.9208 140.541 66.2991C142.206 66.8288 142.888 67.5854 142.888 68.8716C142.888 70.3092 141.752 71.5198 139.482 71.5198C138.498 71.5198 137.514 71.2171 136.909 70.8388L137.363 69.5526Z" fill="white"/>
<path d="M149.926 61.0028C149.321 61.0028 148.942 60.5489 148.942 60.0192C148.942 59.4896 149.321 59.0356 149.926 59.0356C150.531 59.0356 150.91 59.4896 150.91 60.0192C150.986 60.5489 150.607 61.0028 149.926 61.0028ZM149.169 71.2171V62.5161H150.759V71.2171H149.169Z" fill="white"/>
<path d="M153.559 64.9372C153.559 64.0293 153.559 63.2727 153.483 62.516H154.921L154.997 64.0293H155.072C155.526 63.197 156.586 62.2891 158.175 62.2891C159.311 62.2891 161.43 62.97 161.43 66.2234V71.2171H159.84V66.3748C159.84 64.8615 159.235 63.651 157.646 63.651C156.51 63.651 155.602 64.4832 155.299 65.3155C155.224 65.5425 155.148 65.7695 155.148 66.0721V71.2171H153.559V64.9372V64.9372Z" fill="white"/>
<path d="M166.046 60.3975V62.516H168.468V63.7266H166.046V68.2662C166.046 69.3255 166.349 70.0821 167.333 70.0821C167.787 70.0821 168.09 70.0064 168.317 69.9308L168.392 71.1414C168.09 71.2927 167.56 71.3684 166.879 71.3684C166.122 71.3684 165.516 71.0657 165.138 70.6117C164.684 70.0821 164.533 69.2498 164.533 68.3419V63.6509H163.17V62.4403H164.533V60.7758L166.046 60.3975Z" fill="white"/>
<path d="M171.117 67.207C171.117 69.1742 172.555 70.1578 174.296 70.1578C175.582 70.1578 176.339 69.9309 176.944 69.7039L177.247 70.8388C176.717 71.0658 175.658 71.4441 174.068 71.4441C171.268 71.4441 169.528 69.6282 169.528 67.0557C169.528 64.4832 171.193 62.2891 173.917 62.2891C177.02 62.2891 177.777 65.0129 177.777 66.4504C177.777 66.7531 177.777 66.9801 177.701 67.207H171.117V67.207ZM176.263 66.0721C176.263 65.3155 175.961 63.4996 173.841 63.4996C172.025 63.4996 171.268 65.0129 171.117 66.0721H176.263Z" fill="white"/>
<path d="M179.82 58.3545H181.41V71.2169H179.82V58.3545Z" fill="white"/>
<path d="M184.967 61.0028C184.361 61.0028 183.983 60.5489 183.983 60.0192C183.983 59.4896 184.361 59.0356 184.967 59.0356C185.572 59.0356 185.951 59.4896 185.951 60.0192C186.026 60.5489 185.648 61.0028 184.967 61.0028ZM184.21 71.2171V62.5161H185.799V71.2171H184.21Z" fill="white"/>
<path d="M196.546 69.8552C196.546 71.7467 196.092 73.1086 195.184 73.9409C194.276 74.7731 192.913 75.0001 191.854 75.0001C190.719 75.0001 189.508 74.6975 188.751 74.1679L189.129 72.8816C189.735 73.2599 190.719 73.6382 191.93 73.6382C193.67 73.6382 194.957 72.7303 194.957 70.4605V69.4769C194.427 70.3091 193.443 71.0658 191.93 71.0658C189.659 71.0658 187.994 69.1742 187.994 66.8287C187.994 63.9536 190.037 62.2134 192.157 62.2134C193.822 62.2134 194.73 63.0457 195.184 63.8779L195.26 62.4404H196.697C196.622 63.0457 196.622 63.7266 196.622 64.7102V69.8552H196.546ZM194.957 66.0721C194.957 65.7695 194.957 65.5425 194.881 65.3155C194.578 64.2562 193.67 63.4996 192.384 63.4996C190.719 63.4996 189.508 64.7859 189.508 66.8287C189.508 68.3419 190.416 69.9308 192.308 69.9308C193.443 69.9308 194.427 69.1742 194.73 68.1906C194.805 67.9636 194.881 67.5853 194.881 67.3583V66.0721H194.957Z" fill="white"/>
<path d="M200.103 67.207C200.103 69.1742 201.541 70.1578 203.282 70.1578C204.568 70.1578 205.325 69.9309 205.931 69.7039L206.233 70.8388C205.704 71.0658 204.644 71.4441 203.055 71.4441C200.254 71.4441 198.514 69.6282 198.514 67.0557C198.514 64.4832 200.103 62.2891 202.903 62.2891C206.006 62.2891 206.763 65.0129 206.763 66.4504C206.763 66.7531 206.763 66.9801 206.687 67.207H200.103V67.207ZM205.25 66.0721C205.25 65.3155 204.947 63.4996 202.828 63.4996C201.011 63.4996 200.254 65.0129 200.103 66.0721H205.25Z" fill="white"/>
<path d="M208.882 64.9372C208.882 64.0293 208.882 63.2727 208.807 62.516H210.244L210.32 64.0293H210.396C210.85 63.197 211.909 62.2891 213.499 62.2891C214.634 62.2891 216.753 62.97 216.753 66.2234V71.2171H215.164V66.3748C215.164 64.8615 214.558 63.651 212.969 63.651C211.834 63.651 210.926 64.4832 210.623 65.3155C210.547 65.5425 210.472 65.7695 210.472 66.0721V71.2171H208.882V64.9372Z" fill="white"/>
<path d="M221.37 60.3975V62.516H223.792V63.7266H221.37V68.2662C221.37 69.3255 221.672 70.0821 222.656 70.0821C223.11 70.0821 223.413 70.0064 223.64 69.9308L223.716 71.1414C223.413 71.2927 222.883 71.3684 222.202 71.3684C221.445 71.3684 220.84 71.0657 220.462 70.6117C220.007 70.0821 219.856 69.2498 219.856 68.3419V63.6509H218.494V62.4403H219.856V60.7758L221.37 60.3975Z" fill="white"/>
<path d="M226.44 67.207C226.44 69.1742 227.878 70.1578 229.619 70.1578C230.906 70.1578 231.662 69.9309 232.268 69.7039L232.571 70.8388C232.041 71.0658 230.981 71.4441 229.392 71.4441C226.592 71.4441 224.851 69.6282 224.851 67.0557C224.851 64.4832 226.44 62.2891 229.241 62.2891C232.344 62.2891 233.1 65.0129 233.1 66.4504C233.1 66.7531 233.1 66.9801 233.025 67.207H226.44V67.207ZM231.587 66.0721C231.587 65.3155 231.284 63.4996 229.165 63.4996C227.349 63.4996 226.592 65.0129 226.44 66.0721H231.587Z" fill="white"/>
<path d="M234.993 69.5526C235.522 69.8552 236.431 70.2335 237.263 70.2335C238.474 70.2335 239.004 69.6282 239.004 68.9473C239.004 68.1907 238.474 67.8124 237.263 67.434C235.598 66.9044 234.841 65.9965 234.841 64.9372C234.841 63.4997 235.976 62.3647 237.944 62.3647C238.852 62.3647 239.685 62.5917 240.215 62.97L239.836 64.1806C239.533 63.9536 238.777 63.651 237.868 63.651C236.885 63.651 236.355 64.1806 236.355 64.8616C236.355 65.6182 236.96 65.9208 238.171 66.2991C239.836 66.8288 240.517 67.5854 240.517 68.8716C240.517 70.3092 239.382 71.5198 237.112 71.5198C236.128 71.5198 235.144 71.2171 234.538 70.8388L234.993 69.5526Z" fill="white"/>
<path d="M57.4426 28.998C56.4587 25.3662 56.0046 23.4747 55.3992 20.5239C54.7937 20.5996 49.3446 17.1191 50.0258 11.2932C47.3012 8.94771 46.0146 7.58581 43.2901 5.01333C42.9874 5.61862 40.3385 6.60221 37.841 5.61862C35.3435 4.63502 33.2244 2.89481 32.6946 0.322327C28.3051 0.095343 26.413 -0.0559795 22.2505 0.0196817C22.7803 1.38158 22.7046 2.21386 22.3262 3.42444C21.9478 4.71068 20.5855 5.99692 19.2232 6.60221C15.6662 8.11544 11.2766 5.92126 10.3684 5.24031C7.71956 8.49375 5.29774 11.3689 2.64887 15.1519C4.99501 16.2869 6.20592 20.2969 6.20592 22.4911C6.20592 25.8202 3.70842 29.9059 0 30.2085C1.43796 36.0345 2.27046 38.153 4.16251 44.3572C12.7903 44.1302 15.4391 51.1667 14.3796 55.782C18.088 57.2953 21.5694 59.1111 25.0507 60.4731V52.3773C14.758 48.1403 8.09797 35.8075 9.76297 24.307C10.7468 17.5731 14.5309 11.8228 20.0557 8.72073C25.2021 5.76994 31.181 5.39163 37.0842 7.58581C37.3869 7.66147 37.6896 7.81279 37.9167 7.88846C47.831 11.9742 54.1883 22.6424 53.053 33.689C52.2962 41.0281 48.5121 47.081 42.0792 50.7127L40.9439 59.0355C43.063 58.1276 45.0308 56.9926 46.8471 55.5551C46.0146 52.6043 50.934 46.7784 53.7342 47.3836C54.9451 43.9789 55.5506 42.39 56.7615 39.2122C54.3396 38.9852 54.5667 29.3763 57.4426 28.998Z" fill="white"/>
<path d="M41.7765 62.9697L24.748 65.6179L24.8994 70.5359L29.3646 70.9142C29.516 73.1083 31.3324 74.8485 33.4515 74.8485C35.5706 74.8485 37.3113 73.1083 37.5383 70.9142L42.0035 70.5359L41.7765 62.9697Z" fill="white"/>
<path d="M42.1548 50.7883C46.1659 47.9888 48.8905 43.7518 50.1014 39.1365C51.3123 34.5211 51.4637 28.7709 49.7987 24.4582C48.2093 20.1455 45.9389 16.5138 42.3818 13.9413C38.8248 11.3688 34.6623 10.0069 29.97 10.3852C25.8075 10.6878 20.9638 12.882 18.0879 15.9841C15.212 19.0862 13.4713 23.3989 13.2443 27.8629C12.9415 32.327 14.1525 36.9423 16.4229 40.8767C18.6177 44.8111 22.0234 48.1402 26.0345 50.0317L27.0184 50.4857L26.9427 51.4693C26.7913 54.7227 26.7157 57.9761 26.4886 61.2296C26.4886 61.2296 30.7268 61.0782 32.8459 61.0782C35.3434 61.0026 37.8409 61.0026 40.3384 61.0026C37.8409 61.4566 35.4191 61.8349 32.9216 62.2888C30.4241 62.6671 27.9266 63.0454 25.5048 63.4238L24.4452 63.5751L24.3695 62.3645C24.1425 59.1111 23.9154 52.6042 23.9154 52.6042C23.9154 52.6042 23.8397 52.6042 23.7641 52.5285C14.6065 48.5185 8.32494 38.3799 8.62767 27.5603C8.77904 22.037 10.8981 16.4381 14.6065 12.3524C18.315 8.34234 23.6127 5.92118 28.9104 5.76985C31.5593 5.69419 34.2082 6.14816 36.63 7.0561C39.0518 7.96403 41.398 9.25027 43.5171 10.8392C47.6796 14.0926 50.7825 18.7836 52.2962 23.8529C53.8098 28.9979 53.6584 34.5968 51.8421 39.5148C50.1014 44.5841 46.5443 48.7455 42.1548 50.7883Z" fill="#FA9401"/>
</svg>
